<?xml version="1.0" encoding="UTF-8" standalone="no"?>
<!DOCTYPE svg PUBLIC "-//W3C//DTD SVG 1.1//EN" "http://www.w3.org/Graphics/SVG/1.1/DTD/svg11.dtd">
<svg width="100%" height="100%" viewBox="0 0 24 24" version="1.1" xmlns="http://www.w3.org/2000/svg" xmlns:xlink="http://www.w3.org/1999/xlink" xml:space="preserve" xmlns:serif="http://www.serif.com/" style="fill-rule:evenodd;clip-rule:evenodd;stroke-linejoin:round;stroke-miterlimit:2;">
    <path d="M22.062,6.927C21.815,6.041 21.12,5.347 20.234,5.1C18.597,4.661 12.01,4.661 12.01,4.661C12.01,4.661 5.439,4.652 3.785,5.1C2.899,5.347 2.204,6.041 1.957,6.927C1.646,8.603 1.493,10.304 1.5,12.009C1.494,13.707 1.647,15.402 1.956,17.071C2.203,17.958 2.898,18.653 3.785,18.9C5.42,19.34 12.01,19.34 12.01,19.34C12.01,19.34 18.58,19.34 20.234,18.9C21.12,18.653 21.815,17.959 22.062,17.073C22.365,15.403 22.511,13.708 22.5,12.011C22.512,10.306 22.366,8.604 22.062,6.927ZM9.907,15.152L9.907,8.852L15.39,12.005L9.907,15.152Z" style="fill:white;fill-rule:nonzero;"/>
</svg>
