<?xml version="1.0" encoding="UTF-8" standalone="no"?><!DOCTYPE svg PUBLIC "-//W3C//DTD SVG 1.1//EN" "http://www.w3.org/Graphics/SVG/1.1/DTD/svg11.dtd"><svg width="100%" height="100%" viewBox="0 0 131 132" version="1.1" xmlns="http://www.w3.org/2000/svg" xmlns:xlink="http://www.w3.org/1999/xlink" xml:space="preserve" xmlns:serif="http://www.serif.com/" style="fill-rule:evenodd;clip-rule:evenodd;stroke-linejoin:round;stroke-miterlimit:2;"><path id="logo-kaskady-emblem-biela-verzia" d="M68.796,70.253c0.778,0.145 1.342,0.36 2.12,0.643c2.12,0.787 3.251,1.142 3.464,1.142c0.495,0 0.919,-0.143 1.13,-0.428c0.212,-0.355 0.354,-0.927 0.425,-1.784l1.271,0l-0,10.565l-1.132,0c-0.421,-2.498 -1.624,-4.569 -3.531,-6.139c-1.275,-1 -2.405,-1.642 -3.888,-2.072l0.141,-1.927Zm-0.99,31.694c0.708,-0.213 1.342,-0.498 1.909,-0.927c1.131,-0.855 1.696,-1.997 1.696,-3.354c0,-2.07 -2.686,-4.284 -8.06,-6.638l-0.069,-0.073c-0.352,-0.143 -0.849,-0.355 -1.484,-0.642c-3.746,-1.57 -6.22,-3.212 -7.423,-4.926c-0.565,-0.713 -0.988,-1.57 -1.271,-2.428c-0.284,-0.853 -0.426,-1.783 -0.426,-2.711c0,-3.069 1.132,-5.569 3.465,-7.568c1.414,-1.213 3.038,-2.067 5.019,-2.497c-0,0 0.213,-0.07 0.282,-0.07l0.213,3.067c-0.708,0.715 -1.344,1.715 -1.344,2.784c-0,1.785 2.05,3.569 6.22,5.284c0.213,0.072 0.425,0.142 0.495,0.212c3.039,1.288 5.091,2.215 6.292,2.929c1.13,0.642 2.048,1.355 2.685,1.997c0.847,1 1.557,2.072 2.05,3.285c0.426,1.141 0.706,2.426 0.706,3.783c-0,3.212 -1.199,5.854 -3.534,7.923c-1.979,1.713 -4.452,2.712 -7.421,2.927l-0,-2.357Zm31.738,-16.56c0,2.072 -0.354,3.571 -0.99,4.427c-0.637,0.856 -1.697,1.355 -3.252,1.499l-0,1.498l21.984,-0l0,-1.498c-1.839,-0.073 -3.182,-0.57 -3.959,-1.43c-0.778,-0.925 -1.201,-2.424 -1.201,-4.496l0,-26.053c0,-2.072 0.423,-3.57 1.201,-4.427c0.777,-0.857 2.12,-1.354 3.959,-1.429l0,-1.498l-22.125,-0l0,1.498c1.625,0.075 2.756,0.572 3.393,1.429c0.636,0.857 0.99,2.355 0.99,4.427l0,12.846l-11.452,-14.418c-1.766,-2.212 -8.058,-13.205 -10.956,-5.782l-0,1.498l0.495,0c1.343,0 2.474,0.287 3.463,0.787c1.061,0.5 1.98,1.355 2.97,2.569l6.149,7.781l-12.723,20.986c1.979,2.213 2.897,4.639 2.897,7.853c-0,4.997 -2.119,8.353 -6.22,10.635c3.395,-0.213 6.574,-2.282 9.613,-7.351l13.926,-23.058l1.838,2.284l0,9.423Zm-68.847,0c-0,2.072 0.282,3.571 0.988,4.427c0.638,0.856 1.698,1.355 3.253,1.499l-0,1.498l-21.983,-0l-0,-1.498c1.837,-0.073 3.181,-0.57 3.957,-1.43c0.78,-0.925 1.203,-2.424 1.203,-4.496l-0,-26.053c-0,-2.072 -0.423,-3.57 -1.203,-4.427c-0.776,-0.857 -2.12,-1.354 -3.957,-1.429l-0,-1.498l22.125,-0l-0,1.498c-1.627,0.075 -2.757,0.572 -3.395,1.429c-0.636,0.857 -0.988,2.355 -0.988,4.427l-0,12.846l11.45,-14.418c1.768,-2.212 8.06,-13.205 10.957,-5.782l-0,1.498l-0.495,0c-1.344,0 -2.474,0.287 -3.464,0.787c-1.06,0.5 -1.978,1.355 -2.969,2.569l-6.149,7.781l20.429,33.765c0.635,1 1.271,1.856 1.907,2.428l0,3.496c-2.122,-0.069 -4.24,-0.143 -5.23,-0.215c-3.816,-0.213 -7.282,-1.785 -10.675,-7.351l-13.922,-23.058l-1.839,2.284l-0,9.423Zm34.353,-54.963c0.634,-3.357 3.179,-7.283 6.572,-8.637c1.555,-0.643 3.605,-0.216 4.452,0.996c0.426,0.857 0.356,1.5 0.426,2.499c1.626,-0.07 3.18,0.286 4.736,0.643c0.142,-0.643 0.142,-1.785 -0.425,-2.639c-1.624,-2.927 -4.663,-4.069 -8.058,-3.999c-4.735,0.072 -7.139,2.997 -7.703,7.566c-0.567,-4.569 -2.898,-7.494 -7.706,-7.566c-3.321,-0.07 -6.362,1.072 -7.986,3.926c-0.567,0.927 -0.778,2.069 -0.495,2.712c1.555,-0.57 3.392,-0.643 4.806,-0.643c-0.072,-0.642 0,-1.212 0.071,-1.783l0.07,0c0.426,-1.785 2.899,-2.498 4.737,-1.712c3.321,1.354 5.866,5.28 6.503,8.637Zm1.625,49.254c0.425,-4.856 0.99,-23.058 1.343,-27.625c0.565,-6.498 1.13,-16.775 2.898,-19.059c4.737,-6.069 9.048,-1.428 11.168,2.211c1.344,2.357 1.837,5.497 1.626,8.708l8.059,0c-0.425,-3.283 -1.486,-6.638 -3.606,-10.065c-1.837,-3.067 -6.431,-5.853 -10.957,-6.066c-5.865,-0.285 -9.259,2.142 -10.319,4.784c-0.636,1.569 -0.919,12.489 -1.06,19.487c-0.213,8.423 -0.069,16.346 -0.636,25.054c-0.636,-8.708 -0.565,-16.631 -0.778,-25.054c-0.141,-6.998 -0.425,-17.918 -1.062,-19.487c-1.057,-2.642 -4.522,-5.069 -10.39,-4.784c-4.452,0.213 -9.046,2.999 -10.955,6.066c-2.049,3.427 -3.11,6.782 -3.534,10.065l8.058,0c-0.213,-3.211 0.212,-6.351 1.625,-8.708c2.121,-3.639 6.363,-8.28 11.169,-2.211c1.697,2.284 2.333,12.561 2.898,19.059c0.354,3.996 0.777,20.487 1.201,25.84c0.708,0.643 2.191,1.428 3.252,1.785Zm-1.556,-75.31c33.576,-0 60.931,27.626 60.931,61.531c-0,30.053 -21.559,55.253 -49.902,60.534c-0.426,0.072 -0.849,0.072 -1.344,0.072c-4.101,-0 -7.493,-2.928 -8.341,-6.783c-0.354,-1.427 -0.423,-3.069 -0.423,-4.568l0,-20.345c-0.567,-0.355 -1.131,-0.713 -1.909,-1.07l0,21.415c0,1.499 -0.07,3.141 -0.354,4.568c-0.847,3.855 -4.242,6.783 -8.342,6.783c-0.493,-0 -0.917,-0 -1.342,-0.072c-28.344,-5.281 -49.902,-30.481 -49.902,-60.534c0,-33.905 27.353,-61.531 60.928,-61.531Zm-0,-4.14c35.837,0 65.031,29.481 65.031,65.671c-0,36.194 -29.194,65.672 -65.031,65.672c-35.836,0 -65.029,-29.478 -65.029,-65.672c-0,-36.19 29.193,-65.671 65.029,-65.671Z" style="fill:#fff;"/></svg>