<?xml version="1.0" encoding="UTF-8" standalone="no"?><!DOCTYPE svg PUBLIC "-//W3C//DTD SVG 1.1//EN" "http://www.w3.org/Graphics/SVG/1.1/DTD/svg11.dtd"><svg width="100%" height="100%" viewBox="0 0 24 24" version="1.1" xmlns="http://www.w3.org/2000/svg" xmlns:xlink="http://www.w3.org/1999/xlink" xml:space="preserve" xmlns:serif="http://www.serif.com/" style="fill-rule:evenodd;clip-rule:evenodd;stroke-linejoin:round;stroke-miterlimit:2;"><g><rect x="0" y="0" width="24" height="24" style="fill:none;"/></g><g><g><path d="M23,11.99l-2.44,-2.79l0.34,-3.69l-3.61,-0.82l-1.89,-3.19l-3.4,1.46l-3.4,-1.46l-1.89,3.19l-3.61,0.81l0.34,3.7l-2.44,2.79l2.44,2.79l-0.34,3.7l3.61,0.82l1.89,3.2l3.4,-1.47l3.4,1.46l1.89,-3.19l3.61,-0.82l-0.34,-3.69l2.44,-2.8Zm-3.95,1.48l-0.56,0.65l0.08,0.85l0.18,1.95l-1.9,0.43l-0.84,0.19l-0.44,0.74l-0.99,1.68l-1.78,-0.77l-0.8,-0.34l-0.79,0.34l-1.78,0.77l-0.99,-1.67l-0.44,-0.74l-0.84,-0.19l-1.9,-0.43l0.18,-1.96l0.08,-0.85l-0.56,-0.65l-1.29,-1.47l1.29,-1.48l0.56,-0.65l-0.09,-0.86l-0.18,-1.94l1.9,-0.43l0.84,-0.19l0.44,-0.74l0.99,-1.68l1.78,0.77l0.8,0.34l0.79,-0.34l1.78,-0.77l0.99,1.68l0.44,0.74l0.84,0.19l1.9,0.43l-0.18,1.95l-0.08,0.85l0.56,0.65l1.29,1.47l-1.28,1.48Z" style="fill:#283f3f;fill-rule:nonzero;"/><path d="M10.09,13.75l-2.32,-2.33l-1.48,1.49l3.8,3.81l7.34,-7.36l-1.48,-1.49l-5.86,5.88Z" style="fill:#283f3f;fill-rule:nonzero;"/></g></g></svg>