<?xml version="1.0" encoding="UTF-8" standalone="no"?>
<!DOCTYPE svg PUBLIC "-//W3C//DTD SVG 1.1//EN" "http://www.w3.org/Graphics/SVG/1.1/DTD/svg11.dtd">
<svg width="100%" height="100%" viewBox="0 0 52 52" version="1.1" xmlns="http://www.w3.org/2000/svg" xmlns:xlink="http://www.w3.org/1999/xlink" xml:space="preserve" xmlns:serif="http://www.serif.com/" style="fill-rule:evenodd;clip-rule:evenodd;stroke-linejoin:round;stroke-miterlimit:2;">
    <g transform="matrix(1,0,0,1,-6,-6)">
        <g transform="matrix(1,0,0,1,-694.37,-898.835)">
            <path d="M726.318,904.989C726.061,905.001 725.811,905.076 725.593,905.212L717.789,910.117L708.806,912.168C708.255,912.294 707.825,912.724 707.7,913.275L705.649,922.258L700.746,930.059C700.445,930.538 700.445,931.147 700.746,931.626L705.649,939.417L707.7,948.398C707.825,948.949 708.255,949.379 708.806,949.505L717.789,951.555L725.593,956.461C726.071,956.761 726.679,956.761 727.158,956.461L734.961,951.555L743.932,949.505C744.482,949.379 744.912,948.949 745.038,948.398L747.089,939.417L751.992,931.626C752.293,931.147 752.293,930.538 751.992,930.059L747.089,922.258L745.038,913.275C744.912,912.724 744.482,912.294 743.932,912.168L734.961,910.117L727.158,905.212C726.907,905.055 726.614,904.978 726.318,904.989ZM726.375,908.195L733.606,912.74C733.746,912.828 733.9,912.893 734.061,912.93L742.375,914.829L744.277,923.156C744.315,923.317 744.377,923.471 744.464,923.61L749.009,930.842L744.466,938.06C744.377,938.201 744.314,938.355 744.277,938.517L742.375,946.844L734.061,948.743C733.9,948.781 733.746,948.845 733.606,948.933L726.375,953.478L719.144,948.933C719.003,948.844 718.849,948.78 718.687,948.743L710.362,946.842L708.461,938.517C708.423,938.355 708.361,938.201 708.274,938.06L703.728,930.842L708.274,923.61C708.361,923.471 708.424,923.317 708.461,923.156L710.362,914.831L718.687,912.93C718.849,912.892 719.003,912.829 719.144,912.74L726.375,908.195ZM735.773,923.745C735.441,923.749 735.121,923.866 734.864,924.075L722.427,933.93L718.115,928.461C716.91,926.847 714.517,928.734 715.806,930.282L721.031,936.908C721.534,937.546 722.461,937.654 723.098,937.15L736.692,926.383C737.815,925.52 737.189,923.723 735.773,923.745L735.773,923.745Z" style="fill-rule:nonzero;"/>
        </g>
    </g>
</svg>
