<?xml version="1.0" encoding="UTF-8" standalone="no"?>
<!DOCTYPE svg PUBLIC "-//W3C//DTD SVG 1.1//EN" "http://www.w3.org/Graphics/SVG/1.1/DTD/svg11.dtd">
<svg width="100%" height="100%" viewBox="0 0 97 96" version="1.1" xmlns="http://www.w3.org/2000/svg" xmlns:xlink="http://www.w3.org/1999/xlink" xml:space="preserve" xmlns:serif="http://www.serif.com/" style="fill-rule:evenodd;clip-rule:evenodd;stroke-linejoin:round;stroke-miterlimit:2;">
    <g transform="matrix(1,0,0,1,-182,-416)">
        <g id="trip-advisor-icon-white-trans">
            <path d="M230.715,416.2C257.152,416.2 278.615,437.663 278.615,464.1C278.615,490.537 257.152,512 230.715,512C204.278,512 182.815,490.537 182.815,464.1C182.815,437.663 204.278,416.2 230.715,416.2ZM260.215,454.8L266.015,448.5L253.215,448.5C246.815,444.1 239.015,441.6 230.715,441.6C222.315,441.6 214.615,444.2 208.215,448.5L195.315,448.5L201.115,454.8C197.615,458 195.315,462.7 195.315,467.8C195.315,477.5 203.215,485.5 213.015,485.5C217.615,485.5 221.915,483.7 225.015,480.8L230.715,487L236.415,480.8C239.515,483.7 243.815,485.5 248.415,485.5C258.115,485.5 266.115,477.6 266.115,467.8C266.015,462.6 263.815,458 260.215,454.8ZM213.015,479.8C206.415,479.8 201.115,474.5 201.115,467.9C201.115,461.3 206.415,456 213.015,456C219.615,456 224.915,461.3 224.915,467.9C225.015,474.4 219.615,479.8 213.015,479.8ZM248.315,479.8C241.715,479.8 236.415,474.5 236.415,467.9C236.415,461.3 241.715,456 248.315,456C254.915,456 260.215,461.3 260.215,467.9C260.315,474.4 254.915,479.8 248.315,479.8ZM248.315,461.5C244.815,461.5 242.015,464.3 242.015,467.8C242.015,471.3 244.815,474.1 248.315,474.1C251.815,474.1 254.615,471.3 254.615,467.8C254.615,464.4 251.815,461.5 248.315,461.5ZM219.315,467.8C219.315,471.3 216.515,474.1 213.015,474.1C209.515,474.1 206.715,471.3 206.715,467.8C206.715,464.3 209.515,461.5 213.015,461.5C216.515,461.5 219.315,464.4 219.315,467.8ZM230.715,467.5C230.715,459.6 225.015,452.9 217.415,450C221.515,448.3 226.015,447.3 230.715,447.3C235.415,447.3 239.915,448.2 244.015,450C236.415,452.9 230.715,459.6 230.715,467.5Z" style="fill:white;"/>
        </g>
    </g>
</svg>
