<?xml version="1.0" encoding="UTF-8" standalone="no"?><!DOCTYPE svg PUBLIC "-//W3C//DTD SVG 1.1//EN" "http://www.w3.org/Graphics/SVG/1.1/DTD/svg11.dtd"><svg width="100%" height="100%" viewBox="0 0 490 317" version="1.1" xmlns="http://www.w3.org/2000/svg" xmlns:xlink="http://www.w3.org/1999/xlink" xml:space="preserve" xmlns:serif="http://www.serif.com/" style="fill-rule:evenodd;clip-rule:evenodd;stroke-linejoin:round;stroke-miterlimit:2;"><path id="logo-kaskady-biela-verzia" d="M307.283,251.166l169.102,0l0,4.208l-166.609,-0l-2.493,-4.208Zm-205.11,0l164.897,0l2.494,4.208l-164.74,-0l-2.651,-4.208Zm-102.086,0l61.876,0l2.649,4.208l-64.525,-0l0,-4.208Zm467.583,-39.155l-0,19.695c-0,3.595 0.623,6.095 2.026,7.502c1.246,1.406 3.429,2.345 6.701,2.502l-0,2.499l-38.651,-0l-0,-2.499c3.117,-0.157 5.455,-0.939 6.701,-2.502c1.403,-1.407 2.027,-3.907 2.027,-7.502l-0,-15.788l-17.301,-30.634c-1.558,-2.657 -2.961,-4.533 -4.207,-5.47c-1.403,-0.94 -2.962,-1.407 -4.832,-1.407l-0,-2.502l35.848,-0l-0,2.502c-1.872,0 -3.118,0.155 -4.053,0.625c-0.779,0.467 -1.247,1.249 -1.247,2.188c0,0.312 0,0.782 0.155,1.094c0.156,0.468 0.313,0.937 0.624,1.407l13.091,24.226l12.001,-22.663c0.468,-0.469 0.624,-1.096 0.779,-1.72c0.158,-0.625 0.313,-1.25 0.313,-1.719c0,-1.094 -0.624,-2.031 -1.714,-2.658c-1.092,-0.468 -2.806,-0.78 -4.989,-0.78l-0.466,0l0,-2.502l19.326,-0l0,2.502l-0.467,0c-1.403,0 -2.494,0.467 -3.585,1.25c-1.091,0.781 -2.028,2.188 -2.962,3.907l-15.118,28.447Zm-185.312,6.096c-3.43,2.657 3.118,2.188 -4.676,-0.156l33.665,-42.359c2.962,-3.75 5.143,-3.75 7.481,0l37.095,60.178c1.245,2.031 1.713,3.75 2.648,4.532c0.156,0.157 0.311,0.157 0.467,0.312c0.779,-0.312 1.247,-0.78 1.716,-1.406c1.401,-1.407 2.025,-3.907 2.025,-7.502l-0,-43.454c-0,-3.594 -0.624,-6.095 -2.025,-7.501c-1.248,-1.407 -3.43,-2.189 -6.703,-2.344l0,-2.502l36.626,-0c11.846,-0 21.198,2.969 27.899,9.065c6.701,6.096 10.131,14.381 10.131,25.165c-0,6.565 -1.403,12.193 -4.365,17.194c-2.805,5.002 -7.17,9.066 -12.78,12.348c-2.65,1.564 -5.922,2.658 -9.974,3.44c-4.052,0.624 -8.728,1.092 -13.872,1.092l-61.407,-0.313l-0,-2.5c3.429,-0 5.767,-0.155 6.702,-0.782c0.935,-0.468 2.338,-1.719 1.403,-2.97c-8.573,-12.972 -37.406,-30.634 -52.056,-19.537Zm6.233,-6.564c12.158,-3.751 31.016,5.47 39.589,13.598l-21.665,-34.855l-17.924,21.257Zm95.385,-31.105l0,52.674c0,2.189 0.467,3.908 1.402,4.846c0.936,0.937 2.495,1.562 4.52,1.562c4.831,0 8.883,-2.656 12.001,-7.969c2.962,-5.316 4.52,-12.35 4.52,-21.103c0,-10.16 -1.714,-17.819 -5.144,-22.663c-3.428,-4.846 -8.728,-7.347 -15.897,-7.347l-1.402,-0Zm-307.036,37.669c-3.43,2.657 3.116,2.188 -4.675,-0.156l33.662,-42.359c2.962,-3.75 5.146,-3.75 7.482,0l37.094,60.176c0.467,0.784 1.09,1.721 1.715,2.66l-0,-17.506l2.65,-0c0.779,5.938 3.429,10.941 8.104,14.846c4.52,3.909 9.82,5.785 15.74,5.785c3.898,-0 6.858,-0.782 9.352,-2.658c2.339,-1.719 3.428,-4.062 3.428,-6.877c0,-4.376 -5.453,-8.908 -16.675,-13.754l-0.155,-0.157c-0.78,-0.313 -1.715,-0.625 -3.118,-1.25c-7.638,-3.282 -12.936,-6.722 -15.429,-10.159c-1.09,-1.564 -2.027,-3.283 -2.651,-5.003c-0.466,-1.875 -0.777,-3.75 -0.777,-5.784c0,-6.25 2.338,-11.409 7.012,-15.473c4.831,-4.221 10.91,-6.252 18.391,-6.252c3.896,0 8.104,0.782 12.469,2.5c4.363,1.564 6.857,2.346 7.17,2.346c1.09,0 2.025,-0.313 2.336,-0.939c0.468,-0.78 0.779,-2.031 0.936,-3.752l2.649,0l-0,21.883l-2.182,-0c-1.089,-5.158 -3.428,-9.378 -7.481,-12.66c-4.052,-3.283 -8.883,-4.845 -14.183,-4.845c-3.429,-0 -6.235,0.78 -8.26,2.346c-2.027,1.562 -3.117,3.593 -3.117,6.093c0,3.597 4.365,7.349 13.091,10.942c0.468,0.157 0.781,0.314 1.092,0.469c6.078,2.501 10.442,4.532 12.936,5.94c2.494,1.407 4.365,2.813 5.611,4.22c1.869,2.033 3.274,4.22 4.208,6.722c0.936,2.5 1.558,5.001 1.558,7.814c0,6.722 -2.492,12.193 -7.325,16.412c-4.831,4.219 -11.22,6.253 -19.013,6.253c-4.365,-0 -9.041,-0.782 -13.717,-2.345c-4.831,-1.563 -7.325,-2.189 -7.791,-2.189c-1.092,-0 -2.027,0.314 -2.807,1.094c-0.623,0.782 -1.09,1.876 -1.245,3.44l-2.807,-0l-0,-2.034l-31.328,-0l0,-2.5c3.43,-0 5.768,-0.155 6.703,-0.78c0.935,-0.47 2.338,-1.721 1.403,-2.972c-8.572,-12.972 -37.406,-30.634 -52.056,-19.537Zm6.235,-6.565c12.155,-3.752 31.014,5.471 39.585,13.599l-21.662,-34.855l-17.923,21.256Zm165.44,-141.28c0.778,0.144 1.342,0.359 2.12,0.643c2.12,0.786 3.251,1.142 3.464,1.142c0.495,-0 0.919,-0.143 1.13,-0.428c0.212,-0.356 0.354,-0.928 0.425,-1.784l1.271,-0l-0,10.565l-1.132,-0c-0.421,-2.499 -1.624,-4.569 -3.531,-6.14c-1.275,-0.999 -2.405,-1.641 -3.888,-2.071l0.141,-1.927Zm-0.99,31.694c0.708,-0.214 1.342,-0.499 1.909,-0.928c1.131,-0.855 1.696,-1.997 1.696,-3.354c0,-2.07 -2.686,-4.283 -8.06,-6.638l-0.069,-0.073c-0.352,-0.143 -0.849,-0.355 -1.484,-0.641c-3.746,-1.571 -6.22,-3.213 -7.423,-4.926c-0.565,-0.714 -0.988,-1.571 -1.271,-2.428c-0.284,-0.854 -0.426,-1.783 -0.426,-2.711c0,-3.07 1.132,-5.569 3.465,-7.568c1.414,-1.214 3.038,-2.068 5.019,-2.497c-0,-0 0.213,-0.071 0.282,-0.071l0.213,3.068c-0.708,0.714 -1.344,1.714 -1.344,2.784c-0,1.785 2.05,3.569 6.22,5.284c0.213,0.071 0.425,0.141 0.495,0.212c3.039,1.287 5.091,2.215 6.292,2.928c1.13,0.642 2.048,1.356 2.685,1.998c0.847,1 1.557,2.071 2.05,3.285c0.426,1.14 0.706,2.425 0.706,3.782c-0,3.213 -1.199,5.854 -3.534,7.923c-1.979,1.714 -4.452,2.713 -7.421,2.928l-0,-2.357Zm31.738,-16.56c0,2.071 -0.354,3.57 -0.99,4.427c-0.637,0.856 -1.697,1.354 -3.252,1.499l0,1.497l21.984,0l0,-1.497c-1.839,-0.073 -3.182,-0.571 -3.959,-1.43c-0.778,-0.926 -1.201,-2.425 -1.201,-4.496l0,-26.054c0,-2.071 0.423,-3.57 1.201,-4.427c0.777,-0.856 2.12,-1.354 3.959,-1.428l0,-1.499l-22.125,0l0,1.499c1.625,0.074 2.756,0.572 3.393,1.428c0.636,0.857 0.99,2.356 0.99,4.427l0,12.847l-11.452,-14.418c-1.766,-2.213 -8.058,-13.206 -10.956,-5.783l-0,1.499l0.495,-0c1.343,-0 2.474,0.286 3.463,0.786c1.061,0.5 1.98,1.356 2.97,2.57l6.149,7.781l-12.723,20.986c1.979,2.213 2.897,4.639 2.897,7.852c-0,4.998 -2.119,8.353 -6.22,10.636c3.395,-0.214 6.574,-2.283 9.613,-7.352l13.926,-23.057l1.838,2.284l0,9.423Zm-68.847,-0c-0,2.071 0.282,3.57 0.988,4.427c0.638,0.856 1.698,1.354 3.253,1.499l-0,1.497l-21.983,0l-0,-1.497c1.837,-0.073 3.181,-0.571 3.957,-1.43c0.78,-0.926 1.203,-2.425 1.203,-4.496l-0,-26.054c-0,-2.071 -0.423,-3.57 -1.203,-4.427c-0.776,-0.856 -2.12,-1.354 -3.957,-1.428l-0,-1.499l22.125,0l-0,1.499c-1.627,0.074 -2.757,0.572 -3.395,1.428c-0.636,0.857 -0.988,2.356 -0.988,4.427l-0,12.847l11.45,-14.418c1.768,-2.213 8.06,-13.206 10.957,-5.783l0,1.499l-0.495,-0c-1.344,-0 -2.474,0.286 -3.464,0.786c-1.06,0.5 -1.978,1.356 -2.969,2.57l-6.149,7.781l20.429,33.764c0.635,1 1.271,1.857 1.907,2.428l0,3.497c-2.122,-0.07 -4.24,-0.144 -5.23,-0.215c-3.816,-0.214 -7.282,-1.785 -10.675,-7.352l-13.922,-23.057l-1.839,2.284l-0,9.423Zm34.353,-54.964c0.634,-3.356 3.179,-7.282 6.572,-8.637c1.555,-0.643 3.605,-0.216 4.452,0.997c0.426,0.857 0.356,1.5 0.426,2.499c1.626,-0.071 3.18,0.286 4.736,0.643c0.142,-0.643 0.142,-1.785 -0.425,-2.64c-1.624,-2.927 -4.663,-4.069 -8.058,-3.998c-4.735,0.071 -7.139,2.997 -7.703,7.566c-0.567,-4.569 -2.898,-7.495 -7.706,-7.566c-3.321,-0.071 -6.362,1.071 -7.986,3.925c-0.567,0.928 -0.778,2.07 -0.495,2.713c1.555,-0.571 3.392,-0.643 4.806,-0.643c-0.072,-0.642 0,-1.213 0.071,-1.783l0.07,-0c0.426,-1.785 2.899,-2.499 4.737,-1.713c3.321,1.355 5.866,5.281 6.503,8.637Zm1.625,49.254c0.425,-4.855 0.99,-23.057 1.343,-27.625c0.565,-6.497 1.13,-16.774 2.898,-19.059c4.737,-6.069 9.048,-1.428 11.168,2.211c1.344,2.357 1.837,5.498 1.626,8.709l8.059,-0c-0.425,-3.284 -1.486,-6.638 -3.606,-10.065c-1.837,-3.068 -6.431,-5.853 -10.957,-6.067c-5.865,-0.285 -9.259,2.142 -10.319,4.784c-0.636,1.569 -0.919,12.49 -1.06,19.487c-0.213,8.423 -0.069,16.346 -0.636,25.055c-0.636,-8.709 -0.565,-16.632 -0.778,-25.055c-0.141,-6.997 -0.425,-17.918 -1.062,-19.487c-1.057,-2.642 -4.522,-5.069 -10.39,-4.784c-4.452,0.214 -9.046,2.999 -10.955,6.067c-2.049,3.427 -3.11,6.781 -3.534,10.065l8.058,-0c-0.213,-3.211 0.212,-6.352 1.625,-8.709c2.121,-3.639 6.363,-8.28 11.169,-2.211c1.697,2.285 2.333,12.562 2.898,19.059c0.354,3.996 0.777,20.487 1.201,25.84c0.708,0.643 2.191,1.428 3.252,1.785Zm-1.556,-75.31c33.576,0 60.931,27.627 60.931,61.532c-0,30.053 -21.559,55.252 -49.902,60.533c-0.426,0.072 -0.849,0.072 -1.344,0.072c-4.101,0 -7.493,-2.927 -8.341,-6.783c-0.354,-1.426 -0.423,-3.068 -0.423,-4.567l0,-20.345c-0.567,-0.356 -1.131,-0.714 -1.909,-1.071l0,21.416c0,1.499 -0.07,3.141 -0.354,4.567c-0.847,3.856 -4.242,6.783 -8.342,6.783c-0.493,0 -0.917,0 -1.342,-0.072c-28.344,-5.281 -49.902,-30.48 -49.902,-60.533c0,-33.905 27.353,-61.532 60.928,-61.532Zm-0,-4.139c35.837,-0 65.031,29.481 65.031,65.671c-0,36.193 -29.194,65.672 -65.031,65.672c-35.836,-0 -65.029,-29.479 -65.029,-65.672c-0,-36.19 29.193,-65.671 65.029,-65.671Zm-210.439,284.714l-14.294,0l0,1.658c0.887,0.072 1.591,0.175 2.12,0.302c0.533,0.125 0.928,0.339 1.189,0.632c0.261,0.3 0.436,0.742 0.522,1.335c0.078,0.585 0.12,1.383 0.11,2.379l-0,6.972l-12.966,0l-0,-6.972c-0.007,-0.996 0.033,-1.794 0.113,-2.379c0.086,-0.593 0.252,-1.035 0.506,-1.335c0.253,-0.293 0.633,-0.507 1.147,-0.632c0.506,-0.127 1.189,-0.23 2.034,-0.302l-0,-1.658l-14.247,0l0,1.658c0.911,0.072 1.639,0.175 2.184,0.302c0.547,0.125 0.958,0.339 1.228,0.632c0.277,0.3 0.459,0.742 0.547,1.335c0.095,0.585 0.134,1.383 0.125,2.379l0,18.212c0.009,0.995 -0.03,1.793 -0.118,2.379c-0.087,0.592 -0.261,1.035 -0.531,1.335c-0.261,0.292 -0.649,0.507 -1.171,0.633c-0.523,0.127 -1.211,0.229 -2.075,0.3l-0,1.66l14.153,0l-0,-1.66c-0.87,-0.071 -1.566,-0.173 -2.089,-0.3c-0.522,-0.126 -0.917,-0.341 -1.178,-0.633c-0.254,-0.3 -0.429,-0.743 -0.515,-1.335c-0.08,-0.586 -0.12,-1.384 -0.113,-2.379l-0,-8.822l12.966,0l-0,8.822c0.01,0.995 -0.032,1.793 -0.119,2.379c-0.086,0.592 -0.261,1.035 -0.538,1.335c-0.277,0.292 -0.689,0.507 -1.241,0.633c-0.563,0.127 -1.299,0.229 -2.232,0.3l0,1.66l14.483,0l-0,-1.66c-0.893,-0.071 -1.607,-0.173 -2.145,-0.3c-0.538,-0.126 -0.932,-0.333 -1.203,-0.633c-0.268,-0.293 -0.443,-0.734 -0.522,-1.312c-0.087,-0.585 -0.126,-1.367 -0.119,-2.356l-0,-18.258c-0.007,-0.996 0.025,-1.794 0.103,-2.379c0.079,-0.593 0.245,-1.035 0.506,-1.335c0.254,-0.293 0.658,-0.507 1.196,-0.632c0.538,-0.127 1.265,-0.23 2.184,-0.302l-0,-1.658Zm19.996,-0.665c-2.177,0.008 -4.148,0.308 -5.914,0.9c-1.764,0.586 -3.323,1.4 -4.669,2.442c-1.346,1.045 -2.47,2.246 -3.38,3.613c-0.91,1.367 -1.598,2.838 -2.058,4.404c-0.468,1.565 -0.697,3.17 -0.697,4.813c0.009,2.276 0.405,4.388 1.18,6.324c0.776,1.944 1.884,3.636 3.309,5.089c1.432,1.448 3.126,2.576 5.089,3.384c1.964,0.805 4.139,1.217 6.522,1.234c1.805,-0 3.523,-0.247 5.144,-0.729c1.63,-0.482 3.128,-1.185 4.488,-2.118c1.355,-0.925 2.542,-2.055 3.54,-3.392c1.004,-1.335 1.782,-2.861 2.327,-4.576c0.554,-1.707 0.831,-3.588 0.838,-5.644c-0.007,-1.872 -0.277,-3.611 -0.808,-5.224c-0.529,-1.612 -1.274,-3.058 -2.231,-4.354c-0.967,-1.289 -2.105,-2.395 -3.412,-3.313c-1.305,-0.917 -2.747,-1.62 -4.313,-2.111c-1.567,-0.489 -3.223,-0.734 -4.955,-0.742Zm-0.95,1.991c1.867,0.009 3.498,0.618 4.899,1.812c1.392,1.201 2.484,2.917 3.269,5.169c0.776,2.243 1.18,4.939 1.187,8.1c-0.007,2.183 -0.222,4.094 -0.64,5.731c-0.42,1.644 -1.006,3.011 -1.75,4.111c-0.743,1.097 -1.614,1.92 -2.595,2.474c-0.99,0.544 -2.043,0.823 -3.184,0.823c-1.219,-0.009 -2.327,-0.27 -3.339,-0.775c-1.006,-0.514 -1.9,-1.226 -2.675,-2.151c-0.783,-0.924 -1.441,-2.017 -1.979,-3.264c-0.538,-1.25 -0.951,-2.617 -1.228,-4.111c-0.277,-1.485 -0.418,-3.051 -0.418,-4.686c0.007,-2.056 0.22,-3.898 0.649,-5.534c0.434,-1.626 1.029,-3.012 1.796,-4.156c0.767,-1.147 1.662,-2.024 2.683,-2.634c1.021,-0.6 2.129,-0.909 3.325,-0.909Zm46.97,6.688c-0.064,-0.767 -0.118,-1.581 -0.173,-2.443c-0.058,-0.853 -0.113,-1.707 -0.16,-2.553c-0.048,-0.837 -0.087,-1.627 -0.118,-2.356c-0.041,-0.726 -0.056,-1.342 -0.071,-1.849l-1.189,0c-0.261,0.3 -0.529,0.537 -0.783,0.703c-0.261,0.173 -0.547,0.302 -0.856,0.372c-0.3,0.078 -0.663,0.112 -1.067,0.112l-19.092,0c-0.452,0.007 -0.84,-0.025 -1.156,-0.08c-0.316,-0.056 -0.593,-0.166 -0.838,-0.339c-0.247,-0.166 -0.483,-0.429 -0.714,-0.768l-1.186,0c-0.032,0.816 -0.079,1.722 -0.151,2.728c-0.062,1.003 -0.133,2.07 -0.205,3.192c-0.081,1.123 -0.15,2.262 -0.214,3.424l1.756,0c0.302,-1.187 0.61,-2.183 0.927,-2.98c0.316,-0.808 0.673,-1.407 1.068,-1.811c0.159,-0.205 0.349,-0.38 0.578,-0.537c0.23,-0.168 0.54,-0.293 0.927,-0.403c0.386,-0.111 0.894,-0.198 1.536,-0.252c0.633,-0.057 1.448,-0.089 2.422,-0.089l1.614,-0l-0,22.433c0.007,0.995 -0.04,1.793 -0.134,2.379c-0.104,0.592 -0.303,1.035 -0.603,1.335c-0.3,0.292 -0.75,0.507 -1.345,0.633c-0.601,0.127 -1.393,0.229 -2.382,0.3l0,1.66l15.482,0l0,-1.66c-1.037,-0.071 -1.868,-0.173 -2.494,-0.3c-0.617,-0.126 -1.092,-0.341 -1.4,-0.633c-0.309,-0.3 -0.521,-0.743 -0.618,-1.335c-0.102,-0.586 -0.15,-1.384 -0.143,-2.379l0,-22.433l2.138,-0c0.926,-0 1.694,0.025 2.311,0.096c0.618,0.063 1.124,0.173 1.521,0.332c0.395,0.157 0.735,0.379 1.012,0.664c0.427,0.427 0.808,1.043 1.156,1.856c0.34,0.823 0.649,1.843 0.933,3.074l1.711,-0.093Zm26.595,14.606c-0.427,1.044 -0.854,1.944 -1.29,2.72c-0.444,0.766 -0.896,1.407 -1.37,1.928c-0.538,0.585 -1.242,0.98 -2.096,1.201c-0.856,0.222 -1.9,0.325 -3.128,0.318c-0.91,0.007 -1.741,-0.025 -2.494,-0.096c-0.743,-0.063 -1.337,-0.19 -1.78,-0.379c-0.468,-0.23 -0.776,-0.649 -0.926,-1.265c-0.159,-0.625 -0.231,-1.494 -0.214,-2.624l0,-8.252l3.181,-0c1,-0.009 1.814,0.016 2.438,0.079c0.626,0.064 1.125,0.212 1.482,0.442c0.363,0.231 0.64,0.584 0.839,1.075c0.198,0.489 0.371,1.162 0.514,2.008l1.709,-0l0,-9.533l-1.709,-0c-0.143,0.823 -0.316,1.48 -0.522,1.953c-0.205,0.481 -0.484,0.838 -0.847,1.067c-0.365,0.237 -0.856,0.38 -1.48,0.45c-0.625,0.064 -1.434,0.096 -2.424,0.087l-3.181,0l0,-10.054c-0.008,-0.514 0.032,-0.893 0.111,-1.13c0.087,-0.236 0.269,-0.387 0.554,-0.45c0.277,-0.062 0.706,-0.087 1.281,-0.08l2.281,-0c0.877,-0 1.623,0.041 2.233,0.12c0.609,0.078 1.115,0.205 1.519,0.38c0.404,0.173 0.736,0.401 0.997,0.687c0.428,0.433 0.799,1.019 1.109,1.738c0.316,0.711 0.577,1.495 0.791,2.34l1.757,-0.237c-0.048,-0.743 -0.095,-1.485 -0.15,-2.23c-0.048,-0.749 -0.096,-1.454 -0.143,-2.109c-0.039,-0.664 -0.078,-1.233 -0.111,-1.715c-0.039,-0.491 -0.055,-0.838 -0.071,-1.059l-22.368,0l-0,1.658c0.838,0.064 1.512,0.152 2.025,0.261c0.508,0.119 0.903,0.325 1.164,0.625c0.261,0.292 0.443,0.735 0.531,1.337c0.094,0.592 0.133,1.406 0.126,2.425l-0,18.212c0.007,0.995 -0.039,1.793 -0.136,2.379c-0.101,0.592 -0.298,1.035 -0.607,1.335c-0.301,0.292 -0.753,0.507 -1.362,0.633c-0.601,0.127 -1.402,0.229 -2.406,0.3l0,1.66l24.22,0c0.08,-0.293 0.175,-0.68 0.286,-1.162c0.118,-0.482 0.237,-1.019 0.372,-1.611c0.126,-0.586 0.261,-1.195 0.387,-1.819c0.127,-0.618 0.245,-1.21 0.356,-1.78c0.104,-0.568 0.189,-1.066 0.261,-1.499l-1.709,-0.334Zm26.501,-0.332c-0.427,1.203 -0.864,2.197 -1.307,2.997c-0.443,0.791 -0.877,1.422 -1.305,1.888c-0.579,0.625 -1.276,1.059 -2.105,1.289c-0.831,0.229 -1.759,0.339 -2.787,0.325c-0.736,0 -1.408,-0.025 -2.01,-0.089c-0.601,-0.063 -1.125,-0.174 -1.552,-0.339c-0.317,-0.135 -0.554,-0.332 -0.721,-0.593c-0.166,-0.261 -0.277,-0.618 -0.332,-1.075c-0.063,-0.458 -0.086,-1.058 -0.086,-1.793l0,-18.543c-0.009,-1.013 0.031,-1.811 0.127,-2.412c0.086,-0.593 0.268,-1.042 0.538,-1.344c0.268,-0.3 0.679,-0.514 1.217,-0.639c0.538,-0.127 1.259,-0.23 2.154,-0.302l-0,-1.658l-14.485,0l0,1.658c0.895,0.072 1.614,0.175 2.161,0.302c0.545,0.125 0.958,0.339 1.235,0.639c0.277,0.302 0.467,0.751 0.563,1.344c0.086,0.601 0.134,1.399 0.125,2.412l-0,18.163c0.009,0.995 -0.039,1.793 -0.134,2.379c-0.104,0.592 -0.309,1.035 -0.618,1.335c-0.308,0.292 -0.775,0.507 -1.393,0.633c-0.618,0.127 -1.434,0.229 -2.461,0.3l-0,1.66l23.128,0c0.08,-0.26 0.175,-0.64 0.293,-1.129c0.118,-0.491 0.245,-1.045 0.38,-1.661c0.134,-0.617 0.278,-1.242 0.411,-1.89c0.135,-0.647 0.261,-1.263 0.381,-1.84c0.118,-0.578 0.213,-1.076 0.292,-1.494l-1.709,-0.523Zm46.922,-11.666l-11.256,-0l-0.048,1.614c1.085,0.133 1.868,0.323 2.36,0.56c0.482,0.245 0.736,0.576 0.752,1.012c0.007,0.427 -0.159,0.996 -0.499,1.699c-0.357,0.759 -0.72,1.469 -1.11,2.142c-0.386,0.68 -0.79,1.319 -1.219,1.937c-1.099,-1.044 -2.112,-2.001 -3.054,-2.861c-0.941,-0.862 -1.781,-1.605 -2.508,-2.246c-0.737,-0.639 -1.332,-1.155 -1.799,-1.533c0.744,-0.498 1.434,-0.98 2.083,-1.455c0.642,-0.466 1.219,-0.917 1.718,-1.342c0.625,-0.516 1.108,-1.099 1.464,-1.74c0.348,-0.639 0.522,-1.375 0.531,-2.198c-0.009,-1.328 -0.358,-2.506 -1.03,-3.534c-0.665,-1.026 -1.607,-1.84 -2.803,-2.432c-1.203,-0.593 -2.602,-0.902 -4.195,-0.91c-1.178,0.008 -2.295,0.221 -3.332,0.64c-1.037,0.427 -1.955,1.005 -2.754,1.738c-0.792,0.743 -1.417,1.591 -1.868,2.546c-0.451,0.948 -0.681,1.968 -0.688,3.043c0.007,1.391 0.3,2.633 0.862,3.723c0.563,1.091 1.338,2.094 2.32,3.011c-1.046,0.729 -1.979,1.4 -2.803,2.032c-0.822,0.624 -1.519,1.256 -2.09,1.888c-0.568,0.641 -1.004,1.337 -1.305,2.096c-0.301,0.758 -0.452,1.628 -0.452,2.616c-0,0.83 0.143,1.667 0.42,2.505c0.277,0.829 0.689,1.629 1.227,2.379c0.546,0.76 1.219,1.431 2.019,2.017c0.799,0.592 1.716,1.058 2.771,1.399c1.044,0.339 2.207,0.512 3.489,0.521c1.568,0.007 3.119,-0.459 4.654,-1.383c1.536,-0.925 3.041,-2.347 4.512,-4.26c0.57,0.576 1.101,1.122 1.584,1.643c0.482,0.521 0.909,0.98 1.281,1.376c0.365,0.402 0.667,0.704 0.887,0.916c0.205,0.215 0.657,0.452 1.346,0.719c0.697,0.261 1.607,0.491 2.754,0.68c1.14,0.199 2.502,0.3 4.068,0.309l0.286,-0.569c-0.729,-1.13 -1.544,-2.269 -2.421,-3.422c-0.887,-1.163 -1.822,-2.294 -2.796,-3.398c-0.982,-1.107 -1.979,-2.151 -3,-3.14c0.728,-1.044 1.409,-2.015 2.051,-2.932c0.641,-0.916 1.283,-1.786 1.939,-2.615c0.42,-0.555 0.815,-1.019 1.187,-1.399c0.381,-0.381 0.768,-0.681 1.18,-0.918c0.404,-0.236 0.87,-0.427 1.401,-0.56c0.531,-0.136 1.155,-0.238 1.884,-0.3l-0,-1.614Zm-21.086,-9.437c0.609,0.007 1.14,0.141 1.597,0.403c0.469,0.269 0.848,0.633 1.164,1.082c0.309,0.452 0.547,0.964 0.704,1.534c0.159,0.569 0.238,1.162 0.238,1.77c-0.007,0.98 -0.118,1.842 -0.34,2.601c-0.221,0.751 -0.514,1.399 -0.87,1.945c-0.357,0.545 -0.745,0.987 -1.164,1.335c-1.069,-0.83 -1.939,-1.588 -2.604,-2.275c-0.665,-0.689 -1.147,-1.368 -1.457,-2.041c-0.309,-0.67 -0.459,-1.399 -0.452,-2.181c0.009,-0.744 0.152,-1.422 0.429,-2.054c0.277,-0.627 0.649,-1.139 1.124,-1.526c0.483,-0.387 1.021,-0.586 1.631,-0.593Zm0.616,25.988c-0.815,-0 -1.598,-0.133 -2.359,-0.403c-0.751,-0.268 -1.432,-0.68 -2.034,-1.233c-0.601,-0.554 -1.076,-1.248 -1.432,-2.087c-0.349,-0.837 -0.531,-1.826 -0.538,-2.965c0,-0.623 0.079,-1.24 0.229,-1.865c0.159,-0.632 0.38,-1.224 0.68,-1.801c0.294,-0.569 0.659,-1.083 1.086,-1.551c1.004,0.871 1.923,1.678 2.77,2.413c0.839,0.734 1.638,1.453 2.406,2.149c0.769,0.695 1.536,1.416 2.302,2.158c0.769,0.745 1.584,1.549 2.447,2.435c-0.404,0.498 -0.909,0.956 -1.512,1.367c-0.609,0.413 -1.258,0.742 -1.962,0.996c-0.698,0.254 -1.395,0.379 -2.083,0.387Zm50.96,-19.823c-0.191,-1.462 -0.365,-2.752 -0.524,-3.857c-0.157,-1.114 -0.284,-2.102 -0.379,-2.974c-0.292,-0.101 -0.768,-0.251 -1.417,-0.449c-0.649,-0.189 -1.417,-0.364 -2.311,-0.53c-0.894,-0.158 -1.852,-0.245 -2.873,-0.252c-1.687,0.007 -3.206,0.244 -4.543,0.719c-1.339,0.473 -2.478,1.13 -3.421,1.969c-0.941,0.844 -1.661,1.833 -2.16,2.956c-0.5,1.123 -0.745,2.338 -0.752,3.651c0.016,1.502 0.371,2.821 1.069,3.96c0.695,1.129 1.662,2.151 2.897,3.052c1.243,0.899 2.667,1.754 4.297,2.568c1.196,0.625 2.209,1.255 3.048,1.898c0.84,0.631 1.487,1.319 1.932,2.054c0.442,0.742 0.672,1.572 0.672,2.497c-0.009,1.021 -0.198,1.905 -0.586,2.656c-0.388,0.752 -0.933,1.328 -1.647,1.74c-0.704,0.418 -1.544,0.623 -2.516,0.63c-0.91,-0.007 -1.75,-0.205 -2.526,-0.583c-0.767,-0.373 -1.473,-0.876 -2.097,-1.494c-0.625,-0.625 -1.179,-1.304 -1.662,-2.048c-0.483,-0.742 -0.894,-1.487 -1.235,-2.229c-0.339,-0.742 -0.601,-1.422 -0.792,-2.038l-1.662,0.569c0.087,0.719 0.182,1.485 0.293,2.285c0.12,0.805 0.238,1.588 0.365,2.347c0.134,0.758 0.261,1.437 0.395,2.029c0.126,0.595 0.253,1.045 0.373,1.353c0.308,0.143 0.689,0.309 1.155,0.491c0.466,0.173 1.03,0.362 1.693,0.552c0.713,0.214 1.482,0.38 2.288,0.491c0.814,0.117 1.655,0.175 2.509,0.175c1.741,-0.009 3.317,-0.254 4.726,-0.745c1.418,-0.489 2.628,-1.169 3.648,-2.047c1.014,-0.869 1.79,-1.889 2.337,-3.05c0.545,-1.163 0.822,-2.428 0.831,-3.788c-0.009,-1.556 -0.374,-2.915 -1.069,-4.078c-0.704,-1.169 -1.686,-2.212 -2.944,-3.13c-1.251,-0.908 -2.717,-1.763 -4.394,-2.561c-1.385,-0.701 -2.516,-1.36 -3.387,-1.983c-0.863,-0.617 -1.496,-1.265 -1.9,-1.936c-0.406,-0.671 -0.609,-1.439 -0.602,-2.292c0.008,-0.926 0.205,-1.74 0.602,-2.444c0.395,-0.703 0.942,-1.249 1.63,-1.651c0.688,-0.396 1.48,-0.592 2.374,-0.601c0.958,0.009 1.796,0.205 2.526,0.592c0.72,0.387 1.337,0.902 1.86,1.534c0.522,0.64 0.966,1.336 1.321,2.095c0.365,0.758 0.658,1.517 0.894,2.276l1.664,-0.379Zm4.369,-7.35l-0,1.658c0.824,0.072 1.487,0.175 1.985,0.309c0.508,0.127 0.88,0.348 1.141,0.648c0.254,0.309 0.42,0.759 0.506,1.351c0.087,0.594 0.127,1.392 0.119,2.389l0,18.163c0.008,0.995 -0.032,1.793 -0.119,2.386c-0.093,0.594 -0.268,1.044 -0.538,1.353c-0.27,0.3 -0.672,0.521 -1.203,0.648c-0.538,0.134 -1.242,0.237 -2.129,0.307l-0,1.613l14.723,0l0,-1.613c-0.997,-0.07 -1.805,-0.173 -2.399,-0.307c-0.602,-0.127 -1.052,-0.348 -1.346,-0.648c-0.3,-0.309 -0.498,-0.759 -0.593,-1.353c-0.095,-0.593 -0.134,-1.391 -0.127,-2.386l-0,-6.546l3.23,0.807c0.268,-0 0.568,-0 0.902,-0.016c0.34,-0.007 0.689,-0.03 1.044,-0.079c1.275,-0.149 2.487,-0.449 3.65,-0.908c1.155,-0.452 2.192,-1.076 3.111,-1.874c0.909,-0.791 1.629,-1.778 2.161,-2.949c0.53,-1.169 0.808,-2.545 0.815,-4.134c-0.007,-1.54 -0.317,-2.9 -0.919,-4.069c-0.61,-1.178 -1.471,-2.142 -2.595,-2.902c-0.942,-0.656 -2.099,-1.13 -3.459,-1.421c-1.371,-0.293 -2.985,-0.436 -4.853,-0.427l-13.107,0Zm10.02,3.793c-0,-0.355 0.023,-0.655 0.087,-0.892c0.063,-0.247 0.174,-0.436 0.34,-0.579c0.143,-0.126 0.356,-0.237 0.649,-0.323c0.286,-0.094 0.658,-0.151 1.108,-0.151c0.737,-0.008 1.45,0.112 2.145,0.357c0.697,0.244 1.323,0.64 1.884,1.194c0.57,0.544 1.013,1.279 1.346,2.188c0.34,0.918 0.506,2.04 0.515,3.375c-0.009,1.273 -0.143,2.356 -0.411,3.249c-0.263,0.892 -0.611,1.629 -1.037,2.206c-0.427,0.576 -0.887,1.019 -1.385,1.335c-0.492,0.316 -0.974,0.544 -1.45,0.664c-0.466,0.126 -0.877,0.189 -1.226,0.182c-0.508,-0.009 -0.99,-0.056 -1.441,-0.152c-0.459,-0.093 -0.831,-0.196 -1.124,-0.321l-0,-12.332Zm43.882,27.032l0,-1.66c-0.751,-0.087 -1.377,-0.214 -1.866,-0.378c-0.499,-0.168 -0.928,-0.428 -1.284,-0.784c-0.348,-0.355 -0.688,-0.855 -1.004,-1.494c-0.317,-0.64 -0.674,-1.477 -1.069,-2.513c-1.536,-4.08 -3.055,-8.18 -4.551,-12.298c-1.496,-4.126 -3.008,-8.26 -4.521,-12.41l-2.421,0.616l-9.737,24.376c-0.379,0.989 -0.736,1.787 -1.053,2.388c-0.316,0.609 -0.656,1.075 -1.02,1.407c-0.356,0.332 -0.799,0.569 -1.314,0.726c-0.515,0.159 -1.156,0.277 -1.932,0.364l0,1.66l10.639,0l0,-1.66c-0.864,-0.103 -1.536,-0.228 -2.018,-0.387c-0.483,-0.15 -0.816,-0.355 -0.998,-0.599c-0.182,-0.254 -0.253,-0.57 -0.214,-0.957c0.041,-0.381 0.15,-0.855 0.332,-1.425c0.286,-0.947 0.579,-1.849 0.871,-2.695c0.293,-0.853 0.577,-1.644 0.84,-2.379l9.118,-0c0.237,0.64 0.475,1.274 0.704,1.913c0.23,0.641 0.443,1.257 0.648,1.849c0.208,0.586 0.389,1.116 0.548,1.598c0.261,0.687 0.388,1.232 0.371,1.628c-0.016,0.403 -0.237,0.712 -0.648,0.933c-0.412,0.213 -1.076,0.387 -2.004,0.521l-0,1.66l13.583,0Zm-14.105,-12.616l-7.407,0c0.607,-1.683 1.226,-3.389 1.836,-5.113c0.616,-1.715 1.249,-3.447 1.916,-5.178l0.141,0l3.514,10.291Zm56.658,11.526c-0.513,-0.183 -0.997,-0.436 -1.448,-0.752c-0.45,-0.325 -0.934,-0.751 -1.447,-1.288c-0.446,-0.482 -0.951,-1.139 -1.522,-1.96c-0.568,-0.821 -1.265,-1.898 -2.089,-3.209c-0.356,-0.554 -0.728,-1.146 -1.108,-1.769c-0.379,-0.634 -0.751,-1.259 -1.108,-1.883c-0.356,-0.623 -0.682,-1.202 -0.966,-1.739c-0.293,-0.53 -0.531,-0.98 -0.711,-1.344c0.799,-0.316 1.559,-0.703 2.271,-1.162c0.712,-0.459 1.338,-0.996 1.892,-1.619c0.547,-0.626 0.981,-1.344 1.29,-2.16c0.317,-0.821 0.474,-1.745 0.483,-2.789c0,-0.98 -0.134,-1.865 -0.404,-2.656c-0.261,-0.798 -0.633,-1.494 -1.108,-2.101c-0.476,-0.609 -1.03,-1.123 -1.671,-1.549c-0.64,-0.429 -1.354,-0.768 -2.136,-1.028c-0.792,-0.254 -1.702,-0.443 -2.732,-0.561c-1.036,-0.111 -2.246,-0.166 -3.632,-0.166l-13.347,0l0,1.658c0.864,0.072 1.552,0.182 2.076,0.325c0.522,0.143 0.91,0.371 1.17,0.678c0.269,0.311 0.444,0.752 0.531,1.321c0.086,0.578 0.127,1.337 0.118,2.278l-0,18.209c0.009,0.973 -0.039,1.755 -0.134,2.349c-0.104,0.593 -0.293,1.042 -0.57,1.351c-0.284,0.307 -0.697,0.538 -1.235,0.68c-0.547,0.134 -1.258,0.245 -2.145,0.316l0,1.66l14.342,0l-0,-1.66c-0.893,-0.071 -1.614,-0.182 -2.152,-0.316c-0.538,-0.142 -0.951,-0.373 -1.219,-0.68c-0.27,-0.309 -0.452,-0.758 -0.538,-1.351c-0.096,-0.594 -0.134,-1.376 -0.127,-2.349l0,-6.924l0.901,0c0.746,-0.006 1.362,0.16 1.854,0.483c0.482,0.331 0.91,0.846 1.281,1.558c0.46,0.837 0.912,1.676 1.346,2.504c0.444,0.832 0.871,1.622 1.298,2.388c0.42,0.766 0.84,1.471 1.251,2.126c0.475,0.742 0.974,1.392 1.503,1.937c0.524,0.553 1.141,1.011 1.854,1.374c0.711,0.373 1.575,0.657 2.611,0.871c1.03,0.205 2.28,0.348 3.769,0.418c0.307,-0 0.593,0.007 0.838,0.023c0.246,0.016 0.443,0.025 0.586,0.025l0.284,-1.517Zm-19.376,-14.087l0,-11.523c0,-0.491 0.024,-0.878 0.086,-1.146c0.065,-0.267 0.175,-0.475 0.342,-0.608c0.143,-0.143 0.38,-0.261 0.729,-0.349c0.347,-0.078 0.815,-0.126 1.407,-0.126c0.673,-0.008 1.338,0.119 1.996,0.355c0.665,0.246 1.266,0.641 1.804,1.178c0.547,0.537 0.981,1.249 1.306,2.126c0.324,0.878 0.492,1.952 0.499,3.218c0.007,1.208 -0.175,2.285 -0.531,3.232c-0.365,0.941 -0.949,1.748 -1.75,2.412c-0.522,0.441 -1.179,0.766 -1.97,0.956c-0.784,0.19 -1.678,0.284 -2.682,0.275l-1.236,-0Zm44.738,6.972c-0.427,1.044 -0.856,1.944 -1.29,2.72c-0.444,0.766 -0.894,1.407 -1.369,1.928c-0.538,0.585 -1.243,0.98 -2.099,1.201c-0.854,0.222 -1.898,0.325 -3.126,0.318c-0.91,0.007 -1.741,-0.025 -2.494,-0.096c-0.743,-0.063 -1.337,-0.19 -1.78,-0.379c-0.467,-0.23 -0.776,-0.649 -0.926,-1.265c-0.159,-0.625 -0.229,-1.494 -0.214,-2.624l0,-8.252l3.181,-0c0.998,-0.009 1.813,0.016 2.438,0.079c0.626,0.064 1.125,0.212 1.48,0.442c0.365,0.231 0.642,0.584 0.841,1.075c0.196,0.489 0.371,1.162 0.514,2.008l1.709,-0l-0,-9.533l-1.709,-0c-0.143,0.823 -0.318,1.48 -0.524,1.953c-0.205,0.481 -0.482,0.838 -0.845,1.067c-0.364,0.237 -0.856,0.38 -1.482,0.45c-0.625,0.064 -1.432,0.096 -2.422,0.087l-3.181,0l0,-10.054c-0.007,-0.514 0.032,-0.893 0.11,-1.13c0.088,-0.236 0.271,-0.387 0.554,-0.45c0.278,-0.062 0.705,-0.087 1.284,-0.08l2.279,-0c0.878,-0 1.623,0.041 2.233,0.12c0.609,0.078 1.115,0.205 1.519,0.38c0.404,0.173 0.736,0.401 0.997,0.687c0.427,0.433 0.799,1.019 1.108,1.738c0.317,0.711 0.578,1.495 0.792,2.34l1.757,-0.237c-0.048,-0.743 -0.094,-1.485 -0.15,-2.23c-0.048,-0.749 -0.095,-1.454 -0.143,-2.109c-0.039,-0.664 -0.078,-1.233 -0.111,-1.715c-0.039,-0.491 -0.055,-0.838 -0.071,-1.059l-22.368,0l-0,1.658c0.838,0.064 1.51,0.152 2.025,0.261c0.508,0.119 0.903,0.325 1.164,0.625c0.263,0.292 0.443,0.735 0.53,1.337c0.095,0.592 0.135,1.406 0.127,2.425l-0,18.212c0.008,0.995 -0.039,1.793 -0.134,2.379c-0.103,0.592 -0.302,1.035 -0.609,1.335c-0.302,0.292 -0.753,0.507 -1.362,0.633c-0.602,0.127 -1.402,0.229 -2.406,0.3l0,1.66l24.22,0c0.08,-0.293 0.175,-0.68 0.286,-1.162c0.118,-0.482 0.235,-1.019 0.372,-1.611c0.126,-0.586 0.26,-1.195 0.387,-1.819c0.127,-0.618 0.246,-1.21 0.356,-1.78c0.104,-0.568 0.191,-1.066 0.261,-1.499l-1.709,-0.334Zm23.176,-15.27c-0.189,-1.462 -0.365,-2.752 -0.522,-3.857c-0.159,-1.114 -0.284,-2.102 -0.381,-2.974c-0.292,-0.101 -0.766,-0.251 -1.417,-0.449c-0.649,-0.189 -1.416,-0.364 -2.309,-0.53c-0.896,-0.158 -1.854,-0.245 -2.875,-0.252c-1.685,0.007 -3.204,0.244 -4.543,0.719c-1.337,0.473 -2.478,1.13 -3.42,1.969c-0.942,0.844 -1.662,1.833 -2.161,2.956c-0.498,1.123 -0.743,2.338 -0.752,3.651c0.016,1.502 0.374,2.821 1.069,3.96c0.697,1.129 1.662,2.151 2.897,3.052c1.243,0.899 2.667,1.754 4.299,2.568c1.194,0.625 2.208,1.255 3.046,1.898c0.84,0.631 1.489,1.319 1.932,2.054c0.444,0.742 0.674,1.572 0.674,2.497c-0.009,1.021 -0.199,1.905 -0.586,2.656c-0.39,0.752 -0.935,1.328 -1.647,1.74c-0.706,0.418 -1.544,0.623 -2.518,0.63c-0.91,-0.007 -1.748,-0.205 -2.524,-0.583c-0.769,-0.373 -1.473,-0.876 -2.098,-1.494c-0.626,-0.625 -1.18,-1.304 -1.663,-2.048c-0.482,-0.742 -0.893,-1.487 -1.233,-2.229c-0.341,-0.742 -0.602,-1.422 -0.792,-2.038l-1.662,0.569c0.086,0.719 0.182,1.485 0.293,2.285c0.118,0.805 0.236,1.588 0.363,2.347c0.134,0.758 0.261,1.437 0.397,2.029c0.127,0.595 0.253,1.045 0.371,1.353c0.31,0.143 0.689,0.309 1.155,0.491c0.467,0.173 1.03,0.362 1.695,0.552c0.713,0.214 1.48,0.38 2.287,0.491c0.816,0.117 1.656,0.175 2.51,0.175c1.741,-0.009 3.316,-0.254 4.724,-0.745c1.418,-0.489 2.628,-1.169 3.65,-2.047c1.012,-0.869 1.789,-1.889 2.335,-3.05c0.547,-1.163 0.824,-2.428 0.831,-3.788c-0.007,-1.556 -0.372,-2.915 -1.069,-4.078c-0.704,-1.169 -1.686,-2.212 -2.944,-3.13c-1.251,-0.908 -2.715,-1.763 -4.394,-2.561c-1.385,-0.701 -2.516,-1.36 -3.387,-1.983c-0.863,-0.617 -1.496,-1.265 -1.9,-1.936c-0.404,-0.671 -0.609,-1.439 -0.602,-2.292c0.009,-0.926 0.207,-1.74 0.602,-2.444c0.397,-0.703 0.942,-1.249 1.63,-1.651c0.69,-0.396 1.48,-0.592 2.376,-0.601c0.958,0.009 1.796,0.205 2.525,0.592c0.719,0.387 1.337,0.902 1.86,1.534c0.523,0.64 0.965,1.336 1.322,2.095c0.363,0.758 0.656,1.517 0.894,2.276l1.662,-0.379Zm21.703,-8.015c-2.177,0.008 -4.147,0.308 -5.912,0.9c-1.765,0.586 -3.325,1.4 -4.67,2.442c-1.345,1.045 -2.469,2.246 -3.379,3.613c-0.91,1.367 -1.6,2.838 -2.059,4.404c-0.467,1.565 -0.696,3.17 -0.696,4.813c0.007,2.276 0.404,4.388 1.178,6.324c0.778,1.944 1.886,3.636 3.311,5.089c1.431,1.448 3.126,2.576 5.088,3.384c1.963,0.805 4.14,1.217 6.523,1.234c1.803,-0 3.522,-0.247 5.144,-0.729c1.63,-0.482 3.128,-1.185 4.488,-2.118c1.353,-0.925 2.542,-2.055 3.539,-3.392c1.005,-1.335 1.781,-2.861 2.326,-4.576c0.554,-1.707 0.831,-3.588 0.84,-5.644c-0.009,-1.872 -0.277,-3.611 -0.808,-5.224c-0.529,-1.612 -1.275,-3.058 -2.231,-4.354c-0.967,-1.289 -2.105,-2.395 -3.412,-3.313c-1.307,-0.917 -2.747,-1.62 -4.313,-2.111c-1.568,-0.489 -3.223,-0.734 -4.957,-0.742Zm-0.949,1.991c1.868,0.009 3.498,0.618 4.9,1.812c1.392,1.201 2.484,2.917 3.269,5.169c0.776,2.243 1.179,4.939 1.187,8.1c-0.008,2.183 -0.222,4.094 -0.64,5.731c-0.42,1.644 -1.007,3.011 -1.75,4.111c-0.746,1.097 -1.614,1.92 -2.597,2.474c-0.989,0.544 -2.042,0.823 -3.182,0.823c-1.219,-0.009 -2.327,-0.27 -3.339,-0.775c-1.006,-0.514 -1.9,-1.226 -2.676,-2.151c-0.785,-0.924 -1.44,-2.017 -1.978,-3.264c-0.538,-1.25 -0.951,-2.617 -1.228,-4.111c-0.277,-1.485 -0.419,-3.051 -0.419,-4.686c0.008,-2.056 0.22,-3.898 0.649,-5.534c0.435,-1.626 1.03,-3.012 1.797,-4.156c0.766,-1.147 1.662,-2.024 2.683,-2.634c1.02,-0.6 2.128,-0.909 3.324,-0.909Zm49.344,28.409c-0.515,-0.183 -0.997,-0.436 -1.448,-0.752c-0.452,-0.325 -0.934,-0.751 -1.449,-1.288c-0.443,-0.482 -0.949,-1.139 -1.519,-1.96c-0.571,-0.821 -1.268,-1.898 -2.09,-3.209c-0.356,-0.554 -0.727,-1.146 -1.108,-1.769c-0.381,-0.634 -0.753,-1.259 -1.108,-1.883c-0.356,-0.623 -0.682,-1.202 -0.966,-1.739c-0.293,-0.53 -0.53,-0.98 -0.713,-1.344c0.801,-0.316 1.56,-0.703 2.272,-1.162c0.713,-0.459 1.339,-0.996 1.891,-1.619c0.547,-0.626 0.983,-1.344 1.291,-2.16c0.316,-0.821 0.475,-1.745 0.482,-2.789c0,-0.98 -0.134,-1.865 -0.404,-2.656c-0.261,-0.798 -0.631,-1.494 -1.106,-2.101c-0.476,-0.609 -1.03,-1.123 -1.671,-1.549c-0.642,-0.429 -1.353,-0.768 -2.138,-1.028c-0.79,-0.254 -1.702,-0.443 -2.73,-0.561c-1.037,-0.111 -2.248,-0.166 -3.633,-0.166l-13.346,0l-0,1.658c0.864,0.072 1.552,0.182 2.074,0.325c0.522,0.143 0.912,0.371 1.173,0.678c0.267,0.311 0.443,0.752 0.529,1.321c0.087,0.578 0.127,1.337 0.119,2.278l0,18.209c0.008,0.973 -0.039,1.755 -0.136,2.349c-0.102,0.593 -0.291,1.042 -0.568,1.351c-0.286,0.307 -0.697,0.538 -1.235,0.68c-0.547,0.134 -1.259,0.245 -2.145,0.316l0,1.66l14.342,0l0,-1.66c-0.893,-0.071 -1.614,-0.182 -2.154,-0.316c-0.538,-0.142 -0.948,-0.373 -1.218,-0.68c-0.268,-0.309 -0.451,-0.758 -0.538,-1.351c-0.095,-0.594 -0.135,-1.376 -0.128,-2.349l-0,-6.924l0.903,0c0.744,-0.006 1.362,0.16 1.852,0.483c0.485,0.331 0.912,0.846 1.283,1.558c0.46,0.837 0.91,1.676 1.346,2.504c0.443,0.832 0.871,1.622 1.298,2.388c0.42,0.766 0.84,1.471 1.251,2.126c0.474,0.742 0.973,1.392 1.503,1.937c0.522,0.553 1.141,1.011 1.852,1.374c0.714,0.373 1.577,0.657 2.612,0.871c1.029,0.205 2.281,0.348 3.769,0.418c0.308,-0 0.592,0.007 0.839,0.023c0.245,0.016 0.443,0.025 0.584,0.025l0.286,-1.517Zm-19.378,-14.087l-0,-11.523c-0,-0.491 0.025,-0.878 0.088,-1.146c0.064,-0.267 0.174,-0.475 0.341,-0.608c0.142,-0.143 0.379,-0.261 0.728,-0.349c0.348,-0.078 0.815,-0.126 1.409,-0.126c0.674,-0.008 1.338,0.119 1.994,0.355c0.665,0.246 1.267,0.641 1.806,1.178c0.545,0.537 0.981,1.249 1.306,2.126c0.324,0.878 0.49,1.952 0.497,3.218c0.009,1.208 -0.173,2.285 -0.529,3.232c-0.364,0.941 -0.949,1.748 -1.75,2.412c-0.522,0.441 -1.179,0.766 -1.969,0.956c-0.785,0.19 -1.679,0.284 -2.685,0.275l-1.236,-0Zm47.066,-7.634c-0.063,-0.767 -0.118,-1.581 -0.174,-2.443c-0.055,-0.853 -0.111,-1.707 -0.159,-2.553c-0.046,-0.837 -0.087,-1.627 -0.118,-2.356c-0.041,-0.726 -0.055,-1.342 -0.071,-1.849l-1.187,0c-0.261,0.3 -0.531,0.537 -0.783,0.703c-0.263,0.173 -0.547,0.302 -0.856,0.372c-0.301,0.078 -0.665,0.112 -1.069,0.112l-19.091,0c-0.451,0.007 -0.839,-0.025 -1.155,-0.08c-0.319,-0.056 -0.596,-0.166 -0.841,-0.339c-0.244,-0.166 -0.482,-0.429 -0.711,-0.768l-1.189,0c-0.03,0.816 -0.078,1.722 -0.149,2.728c-0.063,1.003 -0.135,2.07 -0.206,3.192c-0.079,1.123 -0.15,2.262 -0.215,3.424l1.759,0c0.3,-1.187 0.61,-2.183 0.926,-2.98c0.316,-0.808 0.672,-1.407 1.069,-1.811c0.157,-0.205 0.347,-0.38 0.577,-0.537c0.229,-0.168 0.538,-0.293 0.926,-0.403c0.388,-0.111 0.894,-0.198 1.535,-0.252c0.634,-0.057 1.448,-0.089 2.422,-0.089l1.615,-0l0,22.433c0.008,0.995 -0.04,1.793 -0.135,2.379c-0.101,0.592 -0.3,1.035 -0.6,1.335c-0.3,0.292 -0.753,0.507 -1.346,0.633c-0.602,0.127 -1.394,0.229 -2.383,0.3l0,1.66l15.483,0l-0,-1.66c-1.036,-0.071 -1.868,-0.173 -2.493,-0.3c-0.619,-0.126 -1.093,-0.341 -1.402,-0.633c-0.309,-0.3 -0.522,-0.743 -0.618,-1.335c-0.102,-0.586 -0.148,-1.384 -0.141,-2.379l-0,-22.433l2.136,-0c0.927,-0 1.694,0.025 2.312,0.096c0.617,0.063 1.123,0.173 1.52,0.332c0.395,0.157 0.736,0.379 1.014,0.664c0.427,0.427 0.806,1.043 1.154,1.856c0.342,0.823 0.649,1.843 0.935,3.074l1.709,-0.093Zm-369.784,-23.592l-0,-1.339c-1.621,-0.468 -3.148,-1.266 -4.406,-2.396c-1.927,-1.729 -3.593,-3.862 -4.919,-6.077l-44.096,-73.599l13.332,-16.792c1.781,-2.244 3.931,-4.321 6.49,-5.654c2.381,-1.241 5.064,-1.687 7.726,-1.708l0,-1.6c-0.685,-1.681 -1.915,-4 -3.885,-4.259c-5.542,-0.724 -13.715,12.904 -16.739,16.691l-26.132,32.715l-0,-30.075c-0,-3.131 0.241,-7.647 2.315,-10.186c1.667,-2.044 4.184,-2.901 6.724,-3.189l-0,-0.661l-43.412,-0l-0,0.49c2.88,0.273 5.969,1.153 7.927,3.306c2.397,2.633 2.828,6.841 2.828,10.24l-0,53.768c-0,3.434 -0.461,7.368 -2.81,10.064c-1.957,2.247 -5.033,3.071 -7.945,3.33l-0,0.643l43.256,0l0,-0.67c-2.529,-0.316 -5.056,-1.278 -6.608,-3.386c-1.98,-2.689 -2.275,-6.757 -2.275,-9.981l-0,-19.985l5.174,-6.488l33.524,56.14c9.019,15.104 18.725,18.301 33.931,10.658Zm205.107,0l-0,-1.327c-1.623,-0.458 -3.071,-1.269 -4.381,-2.384c-1.988,-1.692 -3.607,-3.875 -4.944,-6.099l-44.255,-73.604l13.494,-16.796c1.788,-2.222 3.935,-4.319 6.485,-5.647c2.437,-1.269 5.014,-1.689 7.728,-1.708l0,-1.6c-0.685,-1.681 -1.917,-4 -3.884,-4.259c-5.543,-0.724 -13.716,12.904 -16.742,16.691l-26.13,32.715l-0,-30.075c-0,-3.131 0.241,-7.647 2.313,-10.186c1.667,-2.044 4.184,-2.901 6.726,-3.189l-0,-0.661l-43.412,-0l0,0.49c2.884,0.268 6.04,1.132 7.947,3.329c2.295,2.644 2.807,6.854 2.807,10.217l0,53.768c0,3.404 -0.538,7.333 -2.789,10.04c-1.907,2.296 -5.049,3.102 -7.965,3.354l0,0.643l43.19,0l-0.032,-0.67c-2.497,-0.321 -4.981,-1.312 -6.51,-3.386c-1.982,-2.689 -2.275,-6.757 -2.275,-9.981l-0,-19.985l5.174,-6.488l33.524,56.14c9.019,15.104 18.723,18.301 33.931,10.658Z" style="fill:#fff;"/></svg>