<?xml version="1.0" encoding="UTF-8" standalone="no"?>
<!DOCTYPE svg PUBLIC "-//W3C//DTD SVG 1.1//EN" "http://www.w3.org/Graphics/SVG/1.1/DTD/svg11.dtd">
<svg width="100%" height="100%" viewBox="0 0 24 24" version="1.1" xmlns="http://www.w3.org/2000/svg" xmlns:xlink="http://www.w3.org/1999/xlink" xml:space="preserve" xmlns:serif="http://www.serif.com/" style="fill-rule:evenodd;clip-rule:evenodd;stroke-linejoin:round;stroke-miterlimit:2;">
    <path d="M22.06,11.987C22.059,6.468 17.518,1.928 11.999,1.928C6.48,1.928 1.938,6.469 1.938,11.989C1.938,16.917 5.559,21.156 10.427,21.926L10.427,14.9L7.872,14.9L7.872,11.987L10.427,11.987L10.427,9.771C10.414,9.647 10.407,9.522 10.407,9.397C10.407,7.449 12.01,5.846 13.958,5.846C14.048,5.846 14.138,5.849 14.227,5.856C14.982,5.867 15.734,5.934 16.479,6.056L16.479,8.529L15.211,8.529C15.147,8.521 15.083,8.516 15.019,8.516C14.222,8.516 13.565,9.173 13.565,9.97C13.565,10.014 13.567,10.057 13.571,10.1L13.571,11.987L16.362,11.987L15.915,14.9L13.571,14.9L13.571,21.93C18.44,21.158 22.061,16.917 22.06,11.987Z" style="fill:white;fill-rule:nonzero;"/>
</svg>
