<?xml version="1.0" encoding="UTF-8" standalone="no"?>
<!DOCTYPE svg PUBLIC "-//W3C//DTD SVG 1.1//EN" "http://www.w3.org/Graphics/SVG/1.1/DTD/svg11.dtd">
<svg width="100%" height="100%" viewBox="0 0 193 41" version="1.1" xmlns="http://www.w3.org/2000/svg" xmlns:xlink="http://www.w3.org/1999/xlink" xml:space="preserve" xmlns:serif="http://www.serif.com/" style="fill-rule:evenodd;clip-rule:evenodd;stroke-linejoin:round;stroke-miterlimit:2;">
    <g id="METRIK-logo-white">
        <rect x="43.348" y="36.592" width="16.295" height="4.04" style="fill:white;"/>
        <rect x="43.347" y="0.906" width="16.295" height="4.04" style="fill:white;"/>
        <path d="M19.895,31.679L23.997,31.679L23.997,9.941L19.304,9.941L12.491,19.288L5.677,9.941L0.953,9.941L0.953,31.679L5.055,31.679L5.055,15.872L11.993,25.344L12.802,25.344L19.895,15.903L19.895,31.679Z" style="fill:white;fill-rule:nonzero;"/>
        <path d="M59.642,27.639L47.418,27.639L47.418,22.721L59.206,22.721L59.206,18.899L47.418,18.899L47.418,13.856L59.642,13.856L59.642,9.879L43.347,9.879L43.347,31.679L59.642,31.679L59.642,27.639Z" style="fill:white;fill-rule:nonzero;"/>
        <path d="M85.275,31.679L89.377,31.679L89.377,13.607L96.282,13.607L96.282,9.879L78.37,9.879L78.37,13.607L85.275,13.607L85.275,31.679Z" style="fill:white;fill-rule:nonzero;"/>
        <path d="M133.637,31.399L127.047,23.965C131.181,23.126 132.549,20.109 132.549,17.108C132.549,13.328 129.845,9.91 124.713,9.879C121.259,9.91 117.806,9.879 114.357,9.879L114.357,31.679L118.459,31.679L118.459,24.4L122.41,24.4L128.758,31.679L133.637,31.679L133.637,31.399ZM124.713,13.701C127.296,13.701 128.447,15.451 128.447,17.202C128.447,18.952 127.327,20.703 124.713,20.703L118.459,20.703L118.459,13.701L124.713,13.701Z" style="fill:white;fill-rule:nonzero;"/>
        <rect x="150.904" y="9.879" width="4.071" height="21.8" style="fill:white;"/>
        <path d="M191.863,9.879L186.762,9.879L178.489,19.097L178.489,9.879L174.387,9.879L174.387,31.679L178.489,31.679L178.489,22.024L187.602,31.679L192.672,31.679L192.672,31.429L182.19,20.436L191.863,10.003L191.863,9.879Z" style="fill:white;fill-rule:nonzero;"/>
    </g>
</svg>
