<?xml version="1.0" encoding="UTF-8" standalone="no"?>
<!DOCTYPE svg PUBLIC "-//W3C//DTD SVG 1.1//EN" "http://www.w3.org/Graphics/SVG/1.1/DTD/svg11.dtd">
<svg width="100%" height="100%" viewBox="0 0 24 24" version="1.1" xmlns="http://www.w3.org/2000/svg" xmlns:xlink="http://www.w3.org/1999/xlink" xml:space="preserve" xmlns:serif="http://www.serif.com/" style="fill-rule:evenodd;clip-rule:evenodd;stroke-linejoin:round;stroke-miterlimit:2;">
    <path d="M12,3.8C14.67,3.8 14.986,3.81 16.041,3.858C16.676,3.865 17.304,3.981 17.9,4.2C18.773,4.536 19.464,5.227 19.8,6.1C20.02,6.695 20.136,7.323 20.144,7.957C20.188,9.014 20.2,9.33 20.2,12C20.2,14.67 20.19,14.986 20.142,16.041C20.135,16.676 20.019,17.304 19.8,17.9C19.464,18.773 18.773,19.464 17.9,19.8C17.305,20.02 16.677,20.136 16.043,20.144C14.989,20.192 14.672,20.202 12.002,20.202C9.332,20.202 9.015,20.192 7.961,20.144C7.326,20.137 6.696,20.02 6.1,19.8C5.227,19.464 4.536,18.773 4.2,17.9C3.98,17.305 3.864,16.677 3.856,16.043C3.812,14.986 3.8,14.67 3.8,12C3.8,9.33 3.81,9.014 3.858,7.959C3.865,7.324 3.981,6.696 4.2,6.1C4.536,5.227 5.227,4.536 6.1,4.2C6.696,3.981 7.324,3.866 7.959,3.86C9.014,3.812 9.33,3.8 12,3.8M12,2C9.284,2 8.944,2.012 7.877,2.06C7.048,2.077 6.227,2.234 5.45,2.525C4.107,3.043 3.043,4.107 2.525,5.45C2.234,6.227 2.077,7.048 2.06,7.877C2.012,8.944 2,9.284 2,12C2,14.716 2.012,15.056 2.06,16.123C2.077,16.952 2.234,17.773 2.525,18.55C3.043,19.893 4.107,20.957 5.45,21.475C6.227,21.766 7.048,21.923 7.877,21.94C8.944,21.989 9.284,22 12,22C14.716,22 15.056,21.989 16.123,21.94C16.952,21.923 17.773,21.766 18.55,21.475C19.893,20.957 20.957,19.893 21.475,18.55C21.766,17.773 21.923,16.952 21.94,16.123C21.988,15.056 22,14.716 22,12C22,9.284 21.988,8.944 21.94,7.877C21.923,7.048 21.766,6.227 21.475,5.45C20.957,4.107 19.893,3.043 18.55,2.525C17.773,2.234 16.952,2.077 16.123,2.06C15.056,2.012 14.716,2 12,2Z" style="fill:white;fill-rule:nonzero;"/>
    <path d="M12,6.865C9.183,6.865 6.865,9.183 6.865,12C6.865,14.817 9.183,17.135 12,17.135C14.817,17.135 17.135,14.817 17.135,12C17.135,9.183 14.817,6.865 12,6.865ZM12,15.333C10.172,15.333 8.667,13.828 8.667,12C8.667,10.172 10.172,8.667 12,8.667C13.828,8.667 15.333,10.172 15.333,12C15.333,13.828 13.828,15.333 12,15.333Z" style="fill:white;fill-rule:nonzero;"/>
    <circle cx="17.338" cy="6.662" r="1.2" style="fill:white;"/>
</svg>
